<?xml version="1.0" encoding="iso-8859-1"?>
<!-- Generator: Adobe Illustrator 19.0.0, SVG Export Plug-In . SVG Version: 6.00 Build 0)  -->
<svg version="1.1" id="Capa_1" xmlns="http://www.w3.org/2000/svg" xmlns:xlink="http://www.w3.org/1999/xlink" width="100%" height="100%" viewBox="0 0 500 500">
<path style="fill:#FFB042;" d="M116.415,327.05c-2.389,0-4.766-0.567-6.928-1.685c-3.555-1.838-6.234-5.012-7.448-8.824
	l-25.027-78.589c-2.529-7.94,1.859-16.426,9.798-18.955l75.239-23.961c3.812-1.212,7.95-0.862,11.506,0.974
	c3.555,1.838,6.234,5.012,7.448,8.824l25.027,78.589c2.529,7.94-1.859,16.426-9.798,18.955l-75.239,23.961
	C119.5,326.814,117.955,327.05,116.415,327.05z"/>
<path style="fill:#8FD85E;" d="M343.974,389.555c-2.504,0-5.042-0.624-7.38-1.939l-75.402-42.388
	c-7.264-4.084-9.841-13.281-5.758-20.545l48.231-85.798c7.341-13.059,18.313-23.484,31.729-30.147
	c7.97-3.959,14.487-10.152,18.849-17.91l28.845-51.311c1.96-3.488,5.226-6.055,9.08-7.134c3.853-1.081,7.977-0.585,11.464,1.376
	l39.594,22.259c7.264,4.084,9.841,13.281,5.758,20.545l-28.845,51.311c-4.36,7.758-6.264,16.545-5.504,25.411
	c1.278,14.924-1.924,29.715-9.265,42.775l-48.233,85.798C354.37,386.783,349.249,389.555,343.974,389.555z"/>
<path style="fill:#D55F05;" d="M448.688,327.101c-12.292-36.453-46.83-61.849-86.171-61.849c-10.075,0-19.854,1.611-29.208,4.8
	c-22.379-28.242-56.188-44.766-92.728-44.766c-40.301,0-77.245,20.214-99.028,53.472c-3.911-0.639-7.874-0.96-11.863-0.96
	c-39.028,0-71.06,30.519-73.485,68.946C24.601,350.451,0,377.395,0,409.978c0,35.106,28.561,63.667,63.668,63.667h374.698
	c40.601,0,73.633-33.032,73.633-73.633C512,362.913,484.421,332.134,448.688,327.101z"/>
<path style="fill:#B34F03;" d="M237.78,332.608c-14.084,0-26.856,5.716-36.124,14.949c-9.268-9.232-22.04-14.949-36.123-14.949
	c-28.237,0-51.211,22.974-51.211,51.211c0,8.332,6.755,15.087,15.087,15.087s15.087-6.755,15.087-15.087
	c0-11.599,9.438-21.037,21.037-21.037c11.599,0,21.036,9.438,21.036,21.037c0,8.332,6.755,15.087,15.087,15.087
	s15.087-6.755,15.087-15.087c0-11.599,9.438-21.037,21.037-21.037c8.332,0,15.087-6.755,15.087-15.087
	C252.867,339.363,246.113,332.608,237.78,332.608z"/>
<g>
	<path style="fill:#D55F05;" d="M191.458,151.007c-3.861,0-7.723-1.474-10.668-4.42c-18.128-18.128-18.129-44.445-0.001-62.575
		c3.085-3.085,4.743-6.49,4.796-9.848c0.066-4.281-2.571-7.83-4.795-10.053c-5.891-5.892-5.892-15.444-0.001-21.337
		c5.893-5.891,15.443-5.892,21.337-0.001c8.968,8.968,13.809,20.282,13.63,31.858c-0.174,11.194-5.014,22.104-13.63,30.719
		c-3.715,3.715-8.657,11.244,0,19.901c5.892,5.891,5.892,15.444,0,21.336C199.18,149.533,195.318,151.007,191.458,151.007z"/>
	<path style="fill:#D55F05;" d="M256.943,151.007c-3.861,0-7.722-1.473-10.668-4.419c-8.968-8.968-13.809-20.282-13.63-31.858
		c0.174-11.194,5.014-22.103,13.63-30.718c3.715-3.717,8.658-11.244,0-19.902c-5.892-5.891-5.892-15.444,0-21.336
		c5.891-5.891,15.444-5.891,21.336,0c18.129,18.129,18.129,44.445,0,62.575c-3.084,3.085-4.742,6.491-4.795,9.849
		c-0.066,4.28,2.571,7.829,4.795,10.052c5.891,5.892,5.892,15.444,0.001,21.337C264.666,149.533,260.804,151.007,256.943,151.007z"
		/>
</g>
<g>
	<path style="fill:#B34F03;" d="M322.428,151.007c-3.861,0-7.723-1.474-10.668-4.42c-18.129-18.129-18.129-44.445,0-62.575
		c3.716-3.717,8.658-11.244,0-19.902c-5.892-5.891-5.892-15.444,0-21.336c5.891-5.891,15.444-5.891,21.337,0
		c18.129,18.129,18.129,44.445,0,62.575c-3.716,3.717-8.658,11.244,0,19.902c5.892,5.891,5.892,15.444,0,21.336
		C330.15,149.533,326.288,151.007,322.428,151.007z"/>
	<path style="fill:#B34F03;" d="M448.688,327.101c-12.292-36.453-46.83-61.849-86.171-61.849c-10.075,0-19.854,1.611-29.208,4.8
		c-19.715-24.881-48.304-40.659-79.813-44.064v247.657h184.871c40.601,0,73.633-33.032,73.633-73.633
		C512,362.913,484.421,332.134,448.688,327.101z"/>
	<path style="fill:#B34F03;" d="M267.612,42.774c-3.829-3.829-9.203-5.153-14.116-4.004v111.823
		c1.134,0.266,2.289,0.414,3.447,0.414c3.861,0,7.723-1.474,10.669-4.42c5.891-5.892,5.89-15.444-0.001-21.337
		c-2.224-2.223-4.861-5.772-4.795-10.052c0.052-3.358,1.71-6.764,4.795-9.849C285.741,87.22,285.741,60.904,267.612,42.774z"/>
</g>
<g>
</g>
<g>
</g>
<g>
</g>
<g>
</g>
<g>
</g>
<g>
</g>
<g>
</g>
<g>
</g>
<g>
</g>
<g>
</g>
<g>
</g>
<g>
</g>
<g>
</g>
<g>
</g>
<g>
</g>
</svg>
