<svg width="512" height="175" xmlns="http://www.w3.org/2000/svg">

 <g>
  <title>background</title>
  <rect fill="none" id="canvas_background" height="177" width="514" y="-1" x="-1"/>
 </g>
 <g>
  <title>Layer 1</title>
  <path id="svg_1" fill="#8fd143" d="m475.17578,-163.452849c-1.26953,-8.55469 -8.60937,-14.88672 -17.25781,-14.88672l-403.83594,0c-8.64844,0 -15.98828,6.33203 -17.25781,14.88672l-36.82422,248.05078l0,77.35156c0,6.99219 5.66797,12.66016 12.66016,12.66016l486.67968,0c6.99219,0 12.66016,-5.66797 12.66016,-12.66016l0,-77.35156l-36.82422,-248.05078zm0,0"/>
  <path id="svg_2" fill="#7bb72e" d="m475.17578,-163.452849c-1.26953,-8.55469 -8.60937,-14.88672 -17.25781,-14.88672l-66.03125,0c8.64453,0 15.98437,6.33203 17.25781,14.88672l36.82031,248.05078l0,77.35156c0,6.99219 -5.66797,12.66016 -12.66015,12.66016l66.03515,0c6.99219,0 12.66016,-5.66797 12.66016,-12.66016l0,-77.35156l-36.82422,-248.05078zm0,0"/>
  <path id="svg_3" fill="#575d60" d="m448.17578,-63.593479c0,17.55469 -30.59375,38.95704 -53.6914,51.78125c-18.59766,10.33204 -42.41016,11.1836 -70.78907,16.1875c-20.16797,3.5586 -35.28906,25.67188 -58.39062,25.67188c-26.10547,0 -58.63672,-15.33594 -80.85156,-19.81641c-20.76563,-4.1875 -59.72657,-1.55078 -75.07032,-8.76953c-28.60937,-13.46875 -45.55468,-54.90234 -45.55468,-74.67969c0,-20.8164 39.26171,-24.79296 70.59375,-38.45703c15.73437,-6.86328 40.11328,9.78907 60.94531,5.95313c20.83203,-3.83985 38.11719,-28.17188 62.16797,-28.17188c38.10156,0 64.46484,19.13282 93.10937,28.17188c15.8086,4.98437 38.48438,-2.70313 49.65235,4.26953c19.57421,12.22656 47.8789,21.83594 47.8789,37.85937zm0,0"/>
  <path id="svg_4" fill="#464c50" d="m243.16797,-51.925509c-68.54297,0 -128.09766,13.14453 -158.28125,32.44922c6.74609,8.85547 14.96875,16.44922 24.49609,20.9375c15.33985,7.21875 54.30469,4.58203 75.07032,8.76953c22.21484,4.48047 54.74609,19.81641 80.85156,19.81641c23.10156,0 38.22265,-22.11328 58.39062,-25.67188c28.37891,-5.0039 52.19141,-5.85937 70.78907,-16.1875c3.17187,-1.75781 6.48828,-3.6875 9.84375,-5.74218c-29.16407,-20.35157 -90.36719,-34.3711 -161.16016,-34.3711zm0,0"/>
  <path id="svg_5" fill="#e88c38" d="m499.33984,174.609651l-486.67968,0c-6.99219,0 -12.66016,-5.66797 -12.66016,-12.66016l0,-77.35156l512,0l0,77.35156c0,6.99219 -5.66797,12.66016 -12.66016,12.66016zm0,0"/>
  <g id="svg_6" fill="#cc7a2f">
   <path id="svg_7" d="m512,161.949491l0,-77.35156l-66.03516,0l0,77.35156c0,6.99219 -5.66797,12.66016 -12.66015,12.66016l66.03515,0c6.99219,0 12.66016,-5.66797 12.66016,-12.66016zm0,0"/>
   <path id="svg_8" d="m60.07031,106.715121l-60.07031,0l0,15.48437l60.07031,0c4.27344,0 7.74219,-3.46875 7.74219,-7.74218c0,-4.27735 -3.46875,-7.74219 -7.74219,-7.74219zm0,0"/>
   <path id="svg_9" d="m173.0625,122.199491l-61.03906,0c-4.27735,0 -7.74219,-3.46484 -7.74219,-7.74218s3.46484,-7.74219 7.74219,-7.74219l61.03906,0c4.27734,0 7.74219,3.46484 7.74219,7.74219c0,4.27343 -3.46485,7.74218 -7.74219,7.74218zm0,0"/>
   <path id="svg_10" d="m286.05469,122.199491l-61.03906,0c-4.27344,0 -7.74219,-3.46484 -7.74219,-7.74218s3.46875,-7.74219 7.74219,-7.74219l61.03906,0c4.27734,0 7.74219,3.46484 7.74219,7.74219c0,4.27343 -3.46485,7.74218 -7.74219,7.74218zm0,0"/>
   <path id="svg_11" d="m399.05078,122.199491l-61.03906,0c-4.27735,0 -7.74219,-3.46484 -7.74219,-7.74218s3.46485,-7.74219 7.74219,-7.74219l61.03906,0c4.27344,0 7.73828,3.46484 7.73828,7.74219c0,4.27343 -3.46484,7.74218 -7.73828,7.74218zm0,0"/>
  </g>
  <path id="svg_12" fill="#e88c38" d="m512,106.715121l-67.96484,0c-4.27344,0 -7.74219,3.46484 -7.74219,7.74219s3.46875,7.74218 7.74219,7.74218l67.96484,0l0,-15.48437zm0,0"/>
  <path id="svg_13" fill="#cc7a2f" d="m116.56641,156.890901l-61.03907,0c-4.27734,0 -7.74218,-3.46484 -7.74218,-7.74219c0,-4.27734 3.46484,-7.74219 7.74218,-7.74219l61.03907,0c4.27734,0 7.74218,3.46485 7.74218,7.74219c0,4.27735 -3.46484,7.74219 -7.74218,7.74219zm0,0"/>
  <path id="svg_14" fill="#cc7a2f" d="m229.55859,156.890901l-61.03906,0c-4.27734,0 -7.74219,-3.46484 -7.74219,-7.74219c0,-4.27734 3.46485,-7.74219 7.74219,-7.74219l61.03906,0c4.27735,0 7.74219,3.46485 7.74219,7.74219c0,4.27735 -3.46484,7.74219 -7.74219,7.74219zm0,0"/>
  <path id="svg_15" fill="#cc7a2f" d="m342.55078,156.890901l-61.03906,0c-4.27344,0 -7.74219,-3.46484 -7.74219,-7.74219c0,-4.27734 3.46875,-7.74219 7.74219,-7.74219l61.03906,0c4.27735,0 7.74219,3.46485 7.74219,7.74219c0,4.27735 -3.46485,7.74219 -7.74219,7.74219zm0,0"/>
  <path id="svg_16" fill="#cc7a2f" d="m455.54688,156.890901l-61.03907,0c-4.27734,0 -7.74218,-3.46484 -7.74218,-7.74219c0,-4.27734 3.46484,-7.74219 7.74218,-7.74219l61.03907,0c4.27343,0 7.73828,3.46485 7.73828,7.74219c0,4.27735 -3.46485,7.74219 -7.73828,7.74219zm0,0"/>
 </g>
</svg>